<svg xmlns="http://www.w3.org/2000/svg" viewBox="0 0 400 400" width="400" height="400">
  <defs>
    <linearGradient id="bg" x1="0%" y1="0%" x2="100%" y2="100%">
      <stop offset="0%" stop-color="#fff3e0"/>
      <stop offset="100%" stop-color="#ffe0b2"/>
    </linearGradient>
    <linearGradient id="stick" x1="0%" y1="0%" x2="100%" y2="0%">
      <stop offset="0%" stop-color="#5d4037"/>
      <stop offset="50%" stop-color="#795548"/>
      <stop offset="100%" stop-color="#5d4037"/>
    </linearGradient>
    <filter id="blur"><feGaussianBlur stdDeviation="3"/></filter>
    <filter id="shadow"><feDropShadow dx="0" dy="4" stdDeviation="6" flood-color="#000" flood-opacity="0.15"/></filter>
  </defs>
  <rect width="400" height="400" rx="24" fill="url(#bg)"/>
  <circle cx="300" cy="60" r="40" fill="#ff9800" opacity="0.08"/>
  <g filter="url(#shadow)">
    <ellipse cx="200" cy="295" rx="50" ry="12" fill="#8d6e63"/>
    <rect x="170" y="270" width="60" height="28" rx="4" fill="#a1887f"/>
    <rect x="180" y="260" width="40" height="15" rx="4" fill="#8d6e63"/>
    <circle cx="200" cy="268" r="4" fill="#5d4037"/>
  </g>
  <rect x="198" y="120" width="4" height="150" rx="2" fill="url(#stick)"/>
  <circle cx="200" cy="118" r="5" fill="#ff6f00"/>
  <circle cx="200" cy="118" r="3" fill="#ff8f00"/>
  <circle cx="200" cy="116" r="2" fill="#ffcc02"/>
  <g filter="url(#blur)" opacity="0.5">
    <path d="M200,110 C195,90 210,80 200,60 C190,40 210,25 205,10" stroke="#9e9e9e" stroke-width="3" fill="none" opacity="0.4"/>
    <path d="M200,108 C208,88 195,75 205,55 C215,35 200,20 208,5" stroke="#bdbdbd" stroke-width="2" fill="none" opacity="0.3"/>
  </g>
  <rect x="160" y="180" width="3" height="95" rx="1.5" fill="#795548" opacity="0.4" transform="rotate(-15,161,280)"/>
  <rect x="237" y="180" width="3" height="95" rx="1.5" fill="#795548" opacity="0.4" transform="rotate(15,238,280)"/>
  <g transform="translate(295,200)" filter="url(#shadow)">
    <rect x="0" y="0" width="60" height="85" rx="6" fill="#1a5c2a"/>
    <rect x="5" y="5" width="50" height="30" rx="3" fill="white" opacity="0.9"/>
    <text x="30" y="18" text-anchor="middle" font-family="Georgia,serif" font-size="6" font-weight="bold" fill="#1a5c2a">COW DUNG</text>
    <text x="30" y="28" text-anchor="middle" font-family="Georgia,serif" font-size="7" font-weight="bold" fill="#c9a84c">DHOOP</text>
    <text x="30" y="55" text-anchor="middle" font-size="18">🐄</text>
    <text x="30" y="75" text-anchor="middle" font-family="Arial,sans-serif" font-size="5" fill="#c9a84c">30 Sticks</text>
  </g>
  <text x="80" y="120" text-anchor="middle" font-size="28" fill="#ff9800" opacity="0.12">ॐ</text>
  <text x="200" y="350" text-anchor="middle" font-family="Georgia,serif" font-size="16" font-weight="bold" fill="#5d4037">Cow Dung Dhoop Sticks</text>
  <text x="200" y="372" text-anchor="middle" font-family="Arial,sans-serif" font-size="10" fill="#c9a84c" letter-spacing="2">MEGHA'S PANCHGAVYA</text>
</svg>
