<svg xmlns="http://www.w3.org/2000/svg" viewBox="0 0 400 400" width="400" height="400">
  <defs>
    <linearGradient id="bg" x1="0%" y1="0%" x2="100%" y2="100%">
      <stop offset="0%" stop-color="#fce4ec"/>
      <stop offset="100%" stop-color="#f8bbd0"/>
    </linearGradient>
    <linearGradient id="jarBody" x1="0%" y1="0%" x2="100%" y2="100%">
      <stop offset="0%" stop-color="#ffffff"/>
      <stop offset="50%" stop-color="#f5f5f5"/>
      <stop offset="100%" stop-color="#e0e0e0"/>
    </linearGradient>
    <linearGradient id="lidGreen" x1="0%" y1="0%" x2="0%" y2="100%">
      <stop offset="0%" stop-color="#2d8a3e"/>
      <stop offset="100%" stop-color="#1a5c2a"/>
    </linearGradient>
    <filter id="shadow"><feDropShadow dx="0" dy="4" stdDeviation="8" flood-color="#000" flood-opacity="0.12"/></filter>
  </defs>
  <rect width="400" height="400" rx="24" fill="url(#bg)"/>
  <circle cx="320" cy="80" r="50" fill="#e91e63" opacity="0.05"/>
  <g filter="url(#shadow)">
    <path d="M120,210 Q120,180 140,175 L260,175 Q280,180 280,210 L280,280 Q280,310 260,310 L140,310 Q120,310 120,280 Z" fill="url(#jarBody)"/>
    <ellipse cx="200" cy="185" rx="65" ry="12" fill="#fff8e1"/>
    <path d="M115,170 Q115,145 145,140 L255,140 Q285,145 285,170 L285,178 L115,178 Z" fill="url(#lidGreen)"/>
    <rect x="145" y="148" width="40" height="5" rx="2.5" fill="white" opacity="0.2"/>
    <rect x="140" y="210" width="120" height="70" rx="8" fill="white" opacity="0.85"/>
    <text x="200" y="232" text-anchor="middle" font-family="Georgia,serif" font-size="9" fill="#1a5c2a" font-weight="bold">PANCHGAVYA</text>
    <text x="200" y="248" text-anchor="middle" font-family="Georgia,serif" font-size="14" fill="#c9a84c" font-weight="bold">Face Cream</text>
    <text x="200" y="268" text-anchor="middle" font-family="Arial,sans-serif" font-size="6.5" fill="#888">Kumkumadi + Saffron | 50g</text>
    <rect x="130" y="195" width="8" height="50" rx="4" fill="white" opacity="0.3"/>
  </g>
  <g opacity="0.25">
    <circle cx="90" cy="180" r="8" fill="#e91e63"/>
    <circle cx="82" cy="172" r="5" fill="#f48fb1"/>
    <circle cx="98" cy="172" r="5" fill="#f48fb1"/>
    <circle cx="85" cy="188" r="5" fill="#f48fb1"/>
    <circle cx="95" cy="188" r="5" fill="#f48fb1"/>
    <circle cx="310" cy="250" r="7" fill="#e91e63"/>
    <circle cx="303" cy="243" r="4.5" fill="#f48fb1"/>
    <circle cx="317" cy="243" r="4.5" fill="#f48fb1"/>
  </g>
  <g stroke="#e65100" stroke-width="1.5" stroke-linecap="round" opacity="0.3">
    <line x1="310" y1="140" x2="315" y2="160"/>
    <line x1="315" y1="138" x2="322" y2="158"/>
    <line x1="320" y1="142" x2="328" y2="155"/>
  </g>
  <text x="200" y="352" text-anchor="middle" font-family="Georgia,serif" font-size="16" font-weight="bold" fill="#1a5c2a">Panchgavya Face Cream</text>
  <text x="200" y="374" text-anchor="middle" font-family="Arial,sans-serif" font-size="10" fill="#c9a84c" letter-spacing="2">MEGHA'S PANCHGAVYA</text>
</svg>
