<svg xmlns="http://www.w3.org/2000/svg" viewBox="0 0 400 400" width="400" height="400">
  <defs>
    <linearGradient id="bg" x1="0%" y1="0%" x2="100%" y2="100%">
      <stop offset="0%" stop-color="#e8f5e9"/>
      <stop offset="100%" stop-color="#c8e6c9"/>
    </linearGradient>
    <linearGradient id="bottle" x1="0%" y1="0%" x2="100%" y2="0%">
      <stop offset="0%" stop-color="#2e7d32"/>
      <stop offset="30%" stop-color="#388e3c"/>
      <stop offset="70%" stop-color="#2e7d32"/>
      <stop offset="100%" stop-color="#1b5e20"/>
    </linearGradient>
    <linearGradient id="liquid" x1="0%" y1="0%" x2="0%" y2="100%">
      <stop offset="0%" stop-color="#ffcc02" stop-opacity="0.5"/>
      <stop offset="100%" stop-color="#bf8f00" stop-opacity="0.7"/>
    </linearGradient>
    <filter id="shadow"><feDropShadow dx="0" dy="4" stdDeviation="6" flood-color="#000" flood-opacity="0.15"/></filter>
  </defs>
  <rect width="400" height="400" rx="24" fill="url(#bg)"/>
  <circle cx="320" cy="80" r="60" fill="#1a5c2a" opacity="0.05"/>
  <circle cx="80" cy="320" r="50" fill="#1a5c2a" opacity="0.05"/>
  <g filter="url(#shadow)">
    <rect x="145" y="155" width="110" height="160" rx="12" fill="url(#bottle)"/>
    <rect x="175" y="105" width="50" height="55" rx="6" fill="url(#bottle)"/>
    <rect x="170" y="90" width="60" height="22" rx="8" fill="#c9a84c"/>
    <rect x="185" y="85" width="30" height="10" rx="5" fill="#d4b96a"/>
    <rect x="155" y="190" width="90" height="115" rx="8" fill="url(#liquid)"/>
    <rect x="155" y="200" width="90" height="70" rx="6" fill="white" opacity="0.92"/>
    <text x="200" y="222" text-anchor="middle" font-family="Georgia,serif" font-size="9" font-weight="bold" fill="#1a5c2a">GOMUTRA</text>
    <text x="200" y="238" text-anchor="middle" font-family="Georgia,serif" font-size="14" font-weight="bold" fill="#c9a84c">ARK</text>
    <line x1="170" y1="244" x2="230" y2="244" stroke="#1a5c2a" stroke-width="0.5" opacity="0.3"/>
    <text x="200" y="257" text-anchor="middle" font-family="Arial,sans-serif" font-size="7" fill="#666">500ml | Distilled</text>
    <text x="200" y="267" text-anchor="middle" font-family="Arial,sans-serif" font-size="6" fill="#1a5c2a">100% Pure Desi Cow</text>
    <rect x="155" y="160" width="8" height="80" rx="4" fill="white" opacity="0.2"/>
  </g>
  <path d="M100,170 C85,150 90,130 110,135 C125,140 120,160 100,170Z" fill="#2e7d32" opacity="0.35"/>
  <path d="M305,240 C320,225 335,230 330,250 C325,265 310,260 305,240Z" fill="#2e7d32" opacity="0.3"/>
  <text x="200" y="355" text-anchor="middle" font-family="Georgia,serif" font-size="18" font-weight="bold" fill="#1a5c2a">Gomutra Ark</text>
  <text x="200" y="375" text-anchor="middle" font-family="Arial,sans-serif" font-size="10" fill="#c9a84c" letter-spacing="2">MEGHA'S PANCHGAVYA</text>
</svg>
