<svg xmlns="http://www.w3.org/2000/svg" viewBox="0 0 400 400" width="400" height="400">
  <defs>
    <linearGradient id="bg" x1="0%" y1="0%" x2="100%" y2="100%">
      <stop offset="0%" stop-color="#e0f2f1"/>
      <stop offset="100%" stop-color="#b2dfdb"/>
    </linearGradient>
    <linearGradient id="bottleBody" x1="0%" y1="0%" x2="100%" y2="0%">
      <stop offset="0%" stop-color="#f5f5f5"/>
      <stop offset="30%" stop-color="#ffffff"/>
      <stop offset="70%" stop-color="#f5f5f5"/>
      <stop offset="100%" stop-color="#e0e0e0"/>
    </linearGradient>
    <filter id="shadow"><feDropShadow dx="0" dy="4" stdDeviation="6" flood-color="#000" flood-opacity="0.15"/></filter>
  </defs>
  <rect width="400" height="400" rx="24" fill="url(#bg)"/>
  <g filter="url(#shadow)">
    <path d="M150,140 L150,290 Q150,310 170,310 L230,310 Q250,310 250,290 L250,140 Z" fill="url(#bottleBody)"/>
    <rect x="142" y="110" width="116" height="35" rx="10" fill="#1a5c2a"/>
    <rect x="155" y="105" width="90" height="12" rx="6" fill="#2d8a3e"/>
    <rect x="155" y="160" width="90" height="120" rx="6" fill="white"/>
    <rect x="155" y="160" width="90" height="30" rx="6" fill="#1a5c2a"/>
    <text x="200" y="180" text-anchor="middle" font-family="Georgia,serif" font-size="10" font-weight="bold" fill="white">GAUMUTRA</text>
    <text x="200" y="210" text-anchor="middle" font-family="Georgia,serif" font-size="16" font-weight="bold" fill="#c9a84c">Tablets</text>
    <text x="200" y="232" text-anchor="middle" font-family="Arial,sans-serif" font-size="6.5" fill="#666">Triphala + Giloy + Tulsi</text>
    <text x="200" y="248" text-anchor="middle" font-family="Arial,sans-serif" font-size="7" fill="#1a5c2a" font-weight="bold">60 Tablets</text>
    <text x="200" y="262" text-anchor="middle" font-family="Arial,sans-serif" font-size="5.5" fill="#999">500mg each</text>
    <rect x="158" y="145" width="6" height="70" rx="3" fill="white" opacity="0.3"/>
  </g>
  <g opacity="0.5">
    <ellipse cx="300" cy="260" rx="12" ry="8" fill="#a5d6a7" stroke="#66bb6a" stroke-width="1"/>
    <ellipse cx="320" cy="280" rx="12" ry="8" fill="#a5d6a7" stroke="#66bb6a" stroke-width="1" transform="rotate(30,320,280)"/>
    <ellipse cx="90" cy="240" rx="12" ry="8" fill="#a5d6a7" stroke="#66bb6a" stroke-width="1" transform="rotate(-15,90,240)"/>
  </g>
  <path d="M80,170 C65,155 70,135 90,140 C105,145 100,165 80,170Z" fill="#2e7d32" opacity="0.25"/>
  <text x="200" y="352" text-anchor="middle" font-family="Georgia,serif" font-size="17" font-weight="bold" fill="#1a5c2a">Gaumutra Tablets</text>
  <text x="200" y="374" text-anchor="middle" font-family="Arial,sans-serif" font-size="10" fill="#c9a84c" letter-spacing="2">MEGHA'S PANCHGAVYA</text>
</svg>
