<svg xmlns="http://www.w3.org/2000/svg" viewBox="0 0 800 400" width="800" height="400">
  <defs>
    <linearGradient id="bg" x1="0%" y1="0%" x2="100%" y2="100%">
      <stop offset="0%" stop-color="#fef9e7"/>
      <stop offset="100%" stop-color="#f9e8a0"/>
    </linearGradient>
  </defs>
  <rect width="800" height="400" fill="url(#bg)"/>
  <circle cx="400" cy="200" r="120" fill="#c9a84c" opacity="0.08"/>
  <!-- Ghee jar center -->
  <g transform="translate(400,140)">
    <rect x="-35" y="-30" width="70" height="80" rx="10" fill="#e8c95a" stroke="#c9a84c" stroke-width="2"/>
    <rect x="-25" y="-45" width="50" height="18" rx="6" fill="#1a5c2a"/>
    <ellipse cx="0" cy="-27" rx="30" ry="6" fill="#ffe066"/>
    <text text-anchor="middle" y="15" font-size="10" fill="#8b7355" font-family="Georgia,serif" font-weight="bold">A2</text>
    <text text-anchor="middle" y="30" font-size="8" fill="#8b7355" font-family="Georgia,serif">GHEE</text>
  </g>
  <!-- Benefit icons around -->
  <g font-size="22" text-anchor="middle">
    <g transform="translate(200,100)"><circle r="28" fill="white" stroke="#c9a84c" stroke-width="1.5"/><text y="8">🧠</text></g>
    <g transform="translate(600,100)"><circle r="28" fill="white" stroke="#c9a84c" stroke-width="1.5"/><text y="8">💪</text></g>
    <g transform="translate(200,260)"><circle r="28" fill="white" stroke="#c9a84c" stroke-width="1.5"/><text y="8">🦴</text></g>
    <g transform="translate(600,260)"><circle r="28" fill="white" stroke="#c9a84c" stroke-width="1.5"/><text y="8">✨</text></g>
    <g transform="translate(400,270)"><circle r="28" fill="white" stroke="#c9a84c" stroke-width="1.5"/><text y="8">🛡️</text></g>
  </g>
  <!-- Connecting lines -->
  <g stroke="#c9a84c" stroke-width="1" opacity="0.3" stroke-dasharray="4,4">
    <line x1="230" y1="115" x2="365" y2="140"/>
    <line x1="570" y1="115" x2="435" y2="140"/>
    <line x1="230" y1="245" x2="365" y2="200"/>
    <line x1="570" y1="245" x2="435" y2="200"/>
  </g>
  <text x="400" y="340" text-anchor="middle" font-family="Georgia,serif" font-size="28" font-weight="bold" fill="#1a5c2a">5 Amazing Benefits of A2 Ghee</text>
  <text x="400" y="375" text-anchor="middle" font-family="Arial,sans-serif" font-size="11" fill="#c9a84c" letter-spacing="3">MEGHA'S PANCHGAVYA</text>
</svg>
